<?xml version="1.0" encoding="UTF-8"?>
<svg clip-rule="evenodd" fill-rule="evenodd" height="47mm" image-rendering="optimizeQuality" shape-rendering="geometricPrecision" text-rendering="geometricPrecision" viewBox="0 0 100 47" width="100mm" xml:space="preserve" xmlns="http://www.w3.org/2000/svg" xmlns:xlink="http://www.w3.org/1999/xlink">
  <g id="Layer_x0020_1">
    <path d="M 16.1858 19.3632 c -.0189 -.1867 -.0465 -.3303 -.0851 -.439 c -.0486 -.1356 -.1195 -.2324 -.2125 -.2882 c -.0855 -.051 -.1847 -.0767 -.2966 -.0767 c -.2099 0 -.472 .1158 -.8007 .3542 c -.287 .2079 -.6618 .4451 -1.1131 .7047 c -.4461 .2566 -.9949 .4923 -1.6302 .7004 c -.6291 .2062 -1.3784 .3107 -2.2273 .3107 c -1.0001 0 -1.9068 -.1796 -2.694 -.5338 c -.7841 -.3523 -1.4556 -.8804 -1.9951 -1.5698 c -.5426 -.6933 -.9664 -1.5709 -1.2588 -2.6086 c -.2936 -1.0439 -.4427 -2.2646 -.4427 -3.6284 c 0 -1.3744 .1546 -2.6115 .4596 -3.6776 c .3028 -1.0608 .7358 -1.9711 1.2864 -2.7056 c .5457 -.729 1.2116 -1.2881 1.9791 -1.6621 c .7697 -.3752 1.6365 -.5653 2.577 -.5653 c .8692 0 1.6233 .1078 2.241 .3204 c .6263 .2158 1.1631 .4552 1.5954 .7122 c .4369 .2591 .799 .4997 1.0763 .7152 c .3221 .2508 .5678 .3676 .7717 .3676 c .1333 0 .2487 -.0393 .3428 -.1169 c .0851 -.0691 .155 -.1696 .2125 -.3058 c .0517 -.1223 .0889 -.2668 .1144 -.4425 c .0238 -.1651 .0355 -.3676 .0355 -.602 c 0 -.2081 -.0086 -.3916 -.0258 -.5452 c -.0172 -.1508 -.0417 -.2874 -.072 -.4062 c -.0324 -.1218 -.0751 -.2303 -.1275 -.3232 c -.0541 -.0947 -.1571 -.2165 -.3249 -.3837 c -.1636 -.1627 -.4427 -.3609 -.8533 -.606 c -.4014 -.2395 -.8664 -.4534 -1.3819 -.6358 c -.5129 -.1814 -1.0776 -.3335 -1.6794 -.4519 c -.606 -.1192 -1.2365 -.1794 -1.8742 -.1794 c -1.4476 0 -2.7867 .2664 -3.9794 .7925 c -1.1951 .5266 -2.2362 1.3016 -3.0937 2.303 c -.8551 .9995 -1.5283 2.2335 -2.0002 3.668 c -.4706 1.4308 -.709 3.0812 -.709 4.9052 c 0 1.7789 .2219 3.3748 .6587 4.7435 c .4385 1.3743 1.0752 2.5468 1.8924 3.4851 c .8196 .9403 1.8249 1.6615 2.9879 2.1428 c 1.1593 .4798 2.475 .7229 3.9099 .7229 c .8292 0 1.6057 -.0777 2.3085 -.2313 c .699 -.1526 1.3281 -.3424 1.8704 -.5645 c .5432 -.2227 1.0049 -.4542 1.3711 -.6883 c .3755 -.2404 .6174 -.4165 .7386 -.5379 c .1244 -.1242 .2112 -.2302 .2657 -.324 c .052 -.0924 .0947 -.1969 .1267 -.312 c .031 -.1111 .0524 -.2382 .0648 -.3884 c .0117 -.1375 .0179 -.3018 .0179 -.488 c 0 -.2689 -.009 -.4848 -.0269 -.6603 z" fill="#00468c" fill-rule="nonzero"/>
    <path d="M 34.5953 22.229 c -.0465 -.1696 -.1481 -.4546 -.3101 -.8707 c -.001 -.0024 -1.9599 -4.8164 -1.9599 -4.8164 c -.227 -.5557 -.4565 -1.0604 -.6828 -1.5007 c -.2274 -.4446 -.4744 -.8454 -.7335 -1.191 c -.2621 -.3488 -.5481 -.6516 -.8492 -.9005 c -.2005 -.1663 -.4244 -.307 -.6566 -.4357 c .5047 -.2006 .9746 -.4347 1.398 -.7014 c .5316 -.3345 .9946 -.7357 1.377 -1.1925 c .3838 -.4592 .6818 -.9953 .8854 -1.5934 c .2022 -.596 .3049 -1.277 .3049 -2.0243 c 0 -.7703 -.1144 -1.4859 -.34 -2.1268 c -.226 -.6434 -.5712 -1.2232 -1.025 -1.7236 c -.4527 -.4983 -1.0194 -.9152 -1.6849 -1.2392 c -.6601 -.3207 -1.4291 -.5588 -2.2872 -.7073 c -.3046 -.0355 -.6398 -.0668 -1.0057 -.0949 c -.3693 -.0286 -.8375 -.0429 -1.3911 -.0429 l -4.647 0 c -.2973 0 -.5808 .1004 -.843 .2982 c -.277 .2094 -.4179 .567 -.4179 1.0631 l 0 20.2277 c 0 .1246 .0324 .2374 .0965 .3349 c .0692 .1023 .1795 .1793 .3286 .2312 c .123 .0427 .2801 .0784 .4799 .109 c .1957 .0294 .441 .0442 .7297 .0442 c .289 0 .534 -.0148 .729 -.044 c .2019 -.031 .3572 -.067 .4754 -.1104 c .1382 -.0503 .2456 -.1246 .3182 -.2202 c .0748 -.1002 .1123 -.216 .1123 -.345 l 0 -9.1292 l 1.7632 0 c .6377 0 1.1886 .095 1.6372 .2818 c .4488 .1871 .8437 .4521 1.1747 .7879 c .3342 .3404 .6281 .7521 .8727 1.2239 c .2511 .4871 .496 1.0248 .7279 1.598 c -.0007 -.002 2.0096 5.1506 2.0096 5.1506 c .0457 .1409 .1071 .2699 .1787 .3741 c .0807 .1175 .194 .2095 .337 .2734 c .1285 .0582 .2921 .0987 .4992 .1241 c .1929 .0233 .442 .035 .74 .035 c .3414 0 .6204 -.0117 .8299 -.0347 c .2212 -.0248 .391 -.0618 .5199 -.1128 c .1536 -.0614 .259 -.147 .3135 -.2546 c .0465 -.0944 .0696 -.2007 .0696 -.3175 c 0 -.1061 -.0242 -.246 -.0741 -.4274 z m -4.9051 -13.5197 l 0 0 c -.1644 .4222 -.4241 .7941 -.7728 1.1057 c -.3521 .3148 -.7999 .5641 -1.3312 .7414 c -.5364 .1788 -1.1858 .2694 -1.9296 .2694 l -2.6603 0 l 0 -7.0111 l 2.2718 0 c .5656 0 1.029 .0168 1.378 .0499 c .3428 .0327 .6532 .0875 .9229 .163 c .8534 .2456 1.4676 .6499 1.8245 1.2011 c .3624 .5589 .5461 1.257 .5461 2.0744 c 0 .5046 -.0841 .9778 -.2494 1.4062 z" fill="#00468c" fill-rule="nonzero"/>
    <path d="M 84.0177 19.3636 c -.0182 -.1862 -.0465 -.3301 -.0858 -.44 c -.0478 -.1354 -.1191 -.2325 -.2129 -.2881 c -.0847 -.0505 -.1836 -.0762 -.2952 -.0762 c -.2102 0 -.4723 .1158 -.801 .3542 c -.2856 .207 -.6604 .4441 -1.1131 .7047 c -.4465 .2566 -.9953 .4923 -1.6302 .7004 c -.6294 .2062 -1.3788 .3107 -2.2276 .3107 c -.9994 0 -1.9062 -.1796 -2.6941 -.5338 c -.7841 -.3523 -1.4552 -.8804 -1.9947 -1.5698 c -.5429 -.694 -.9667 -1.5718 -1.2585 -2.6084 c -.2938 -1.0437 -.443 -2.2645 -.443 -3.6286 c 0 -1.3751 .1543 -2.6126 .4592 -3.6776 c .3039 -1.0623 .7369 -1.9725 1.2864 -2.7056 c .5461 -.7287 1.212 -1.2879 1.9796 -1.6623 c .7696 -.375 1.6364 -.5651 2.5769 -.5651 c .8692 0 1.623 .1078 2.2407 .3204 c .6256 .2154 1.163 .4552 1.5961 .7124 c .4379 .2597 .7996 .5004 1.0759 .715 c .3221 .2508 .5677 .3676 .7717 .3676 c .133 0 .2481 -.0393 .3425 -.1166 c .0854 -.0694 .1553 -.1699 .2129 -.3061 c .0516 -.1223 .0888 -.2668 .1143 -.4425 c .0238 -.1667 .0359 -.3693 .0359 -.602 c 0 -.2073 -.009 -.3909 -.0266 -.5457 c -.0179 -.1544 -.042 -.2912 -.072 -.4062 c -.0334 -.1246 -.0747 -.2298 -.1271 -.3227 c -.0544 -.0945 -.1606 -.2199 -.3249 -.3837 c -.165 -.1639 -.4441 -.362 -.8533 -.606 c -.401 -.2393 -.8661 -.4533 -1.3822 -.6358 c -.5112 -.1811 -1.0762 -.3332 -1.6795 -.4519 c -.606 -.1192 -1.2361 -.1794 -1.8734 -.1794 c -1.448 0 -2.7871 .2664 -3.9798 .7925 c -1.1951 .5266 -2.2362 1.3016 -3.0933 2.303 c -.8554 .9995 -1.5285 2.2335 -2.0002 3.668 c -.4706 1.4305 -.7093 3.0806 -.7093 4.9052 c 0 1.7801 .2219 3.3758 .6587 4.7435 c .4382 1.3743 1.0752 2.5468 1.8926 3.4851 c .8189 .9403 1.8242 1.6612 2.9873 2.1428 c 1.1593 .4798 2.4749 .7229 3.9098 .7229 c .8292 0 1.6061 -.0777 2.3089 -.2313 c .699 -.1526 1.3281 -.3424 1.8703 -.5645 c .542 -.2218 1.0033 -.4535 1.3709 -.6883 c .3755 -.2401 .6173 -.4161 .7389 -.5377 c .1261 -.1263 .2129 -.2326 .2656 -.3251 c .0521 -.0922 .0948 -.1969 .1268 -.3111 c .0307 -.1109 .0524 -.2413 .0651 -.3879 c .0114 -.1397 .0176 -.3039 .0176 -.4885 c 0 -.2689 -.0089 -.4848 -.0269 -.6599 z" fill="#000000" fill-rule="nonzero"/>
    <path d="M 99.5537 14.6443 c -.2955 -.6539 -.6883 -1.2285 -1.1679 -1.7077 c -.4767 -.477 -1.0259 -.8958 -1.6319 -1.2445 c -.6001 -.3456 -1.2182 -.6662 -1.8362 -.9531 c -.0004 0 -1.8214 -.8525 -1.8214 -.8525 c -.584 -.2758 -1.1111 -.5824 -1.5669 -.9118 c -.4464 -.323 -.8085 -.6986 -1.0762 -1.1169 c -.2612 -.4075 -.3934 -.9034 -.3934 -1.4741 c 0 -.3931 .0695 -.7693 .2067 -1.1181 c .136 -.3451 .3427 -.6476 .6135 -.898 c .2743 -.2534 .6291 -.4599 1.0539 -.6141 c .4285 -.1555 .9419 -.2346 1.5258 -.2346 c .6315 0 1.2068 .0794 1.7112 .2358 c .5126 .1593 .9601 .3366 1.3302 .5264 c .3879 .199 .7024 .3704 .9608 .5242 c .299 .1776 .5133 .2603 .6745 .2603 c .121 0 .2301 -.0393 .3245 -.1166 c .0889 -.0731 .1561 -.1813 .2006 -.322 c .0375 -.1195 .0647 -.2609 .0833 -.4329 c .0176 -.1624 .0266 -.3512 .0266 -.5615 c 0 -.2227 -.0059 -.3993 -.0176 -.5404 c -.0121 -.1431 -.0303 -.2687 -.0544 -.3726 c -.0269 -.1137 -.0603 -.2058 -.1017 -.2819 c -.0437 -.0798 -.1202 -.1728 -.2422 -.2936 c -.1219 -.12 -.3548 -.2668 -.7117 -.4494 c -.3452 -.176 -.7431 -.3367 -1.1838 -.478 c -.4396 -.1409 -.9143 -.2553 -1.4094 -.3397 c -.4988 -.0849 -1 -.1278 -1.4907 -.1278 c -.958 0 -1.8654 .1306 -2.6961 .3881 c -.8344 .2593 -1.5651 .6425 -2.1711 1.1389 c -.6101 .4996 -1.0924 1.1261 -1.4338 1.862 c -.3418 .7355 -.5147 1.5818 -.5147 2.5157 c 0 .9113 .1502 1.7061 .4461 2.3622 c .2939 .6526 .6832 1.2298 1.1565 1.7149 c .4696 .4818 1.0094 .9063 1.6048 1.2613 c .587 .3507 1.1999 .6747 1.8207 .963 l 1.8128 .8443 c .5764 .2692 1.0969 .5705 1.5475 .895 c .4407 .3177 .8 .6904 1.067 1.1081 c .2611 .4081 .3934 .9097 .3934 1.4909 c 0 .5471 -.0968 1.0399 -.288 1.465 c -.1902 .4232 -.4658 .7853 -.8189 1.0759 c -.3576 .2939 -.792 .5251 -1.2915 .6866 c -.502 .1623 -1.0653 .2446 -1.6744 .2446 c -.8113 0 -1.5344 -.0968 -2.149 -.2876 c -.6236 -.1935 -1.1624 -.4031 -1.6013 -.6231 c -.4424 -.2215 -.8079 -.428 -1.0862 -.6141 c -.3204 -.2138 -.5712 -.3174 -.7662 -.3174 c -.1216 0 -.2312 .028 -.3263 .0833 c -.1009 .0593 -.1822 .1578 -.2425 .2936 c -.0524 .1179 -.0899 .2639 -.1147 .4457 c -.0241 .1721 -.0359 .3818 -.0359 .6408 c 0 .3645 .0338 .6629 .1003 .8875 c .0699 .2353 .1805 .4332 .3297 .5884 c .1416 .1476 .381 .3178 .7324 .5201 c .3373 .1944 .7614 .386 1.2609 .5693 c .4923 .181 1.0635 .3367 1.6981 .4627 c .6346 .1252 1.3309 .1885 2.0702 .1885 c 1.06 0 2.0639 -.1447 2.9831 -.4301 c .925 -.2873 1.7411 -.7217 2.426 -1.2917 c .6866 -.5712 1.2313 -1.2766 1.6182 -2.0962 c .3869 -.8199 .5829 -1.7661 .5829 -2.8124 c 0 -.8881 -.1502 -1.6715 -.4462 -2.3287 z" fill="#000000" fill-rule="nonzero"/>
    <path d="M 47.0906 12.4629 c -.0158 -1.8669 1.4487 -3.3593 3.3165 -3.3767 c 1.868 -.0154 3.3604 1.4497 3.3766 3.3183 c .0165 1.8684 -1.4497 3.4363 -3.3166 3.4546 c -1.8682 .0162 -3.3599 -1.5274 -3.3765 -3.3962 z" fill="#00468c"/>
    <path d="M 54.5933 20.8029 c -.3635 .1809 -.6356 .4929 -.7648 .8777 c -.1299 .3853 -.1013 .7978 .0806 1.1627 c .1809 .3635 .4923 .6345 .8775 .7642 c .3858 .1286 .7982 .0991 1.162 -.0815 c 4.2767 -2.1272 6.9094 -6.4166 6.8661 -11.1908 l -.0269 -.7227 c -.0531 -.836 -.7772 -1.4744 -1.6151 -1.4198 c -.8371 .0526 -1.4745 .7774 -1.4207 1.6149 l .0199 .5535 c .0311 3.6006 -1.953 6.8352 -5.1786 8.4418 z m -9.4385 -16.0488 l 0 0 l .0004 -.0005 c 1.5338 -1.0571 3.3328 -1.6236 5.2047 -1.6385 c 1.8449 -.0175 3.6339 .5044 5.1735 1.5083 c .3401 .2213 .748 .298 1.1452 .2134 c .3982 -.0832 .7386 -.3171 .9595 -.6576 c .4588 -.7009 .2594 -1.6454 -.4424 -2.1048 c -2.0433 -1.3326 -4.4159 -2.0259 -6.863 -2.0037 c -2.4821 .0229 -4.8692 .7743 -6.9042 2.1775 c -.6904 .4754 -.8651 1.4238 -.389 2.1149 c .4758 .6904 1.426 .866 2.1153 .391 z m -.0313 18.8654 l 0 0 c .3676 .1744 .7806 .196 1.1634 .0602 c .3824 -.1363 .6904 -.4121 .864 -.7795 c .1757 -.3656 .1974 -.7781 .0614 -1.1624 c -.1361 -.3835 -.4131 -.6897 -.7793 -.8656 c -3.2508 -1.5512 -5.2899 -4.7482 -5.3223 -8.3459 l .0103 -.55 c .02 -.4045 -.1209 -.794 -.3945 -1.0939 c -.2725 -.3009 -.6473 -.4773 -1.0545 -.4959 c -.4052 -.0198 -.7941 .1208 -1.0939 .3933 c -.3007 .2745 -.4771 .6495 -.4953 1.0561 c 0 .0015 -.0148 .7179 -.0148 .7179 c .0423 4.7715 2.7453 9.0112 7.0555 11.0657 z" fill="#000000" fill-rule="nonzero"/>
    <g id="_129163040">
      <path id="_129163088" d="M 33.0591 37.8966 c -.2112 .1092 -.6769 .2257 -1.2664 .2257 c -1.5579 0 -2.5039 -.9826 -2.5039 -2.475 c 0 -1.6157 1.1207 -2.591 2.6204 -2.591 c .5894 0 1.0114 .1236 1.1937 .218 l -.1968 .7135 c -.2328 -.1016 -.5532 -.1891 -.9608 -.1891 c -.997 0 -1.7177 .6259 -1.7177 1.8052 c 0 1.0769 .6332 1.7687 1.7105 1.7687 c .3641 0 .7424 -.073 .9753 -.1819 l .1457 .7059 z" fill="#969696" fill-rule="nonzero"/>
      <path id="_129162920" d="M 34.3038 36.521 c .0217 .6404 .524 .9171 1.0918 .9171 c .4148 0 .7131 -.0582 .9825 -.1602 l .1309 .6187 c -.3055 .1237 -.7276 .2257 -1.2371 .2257 c -1.1503 0 -1.8273 -.7132 -1.8273 -1.7977 c 0 -.9829 .5971 -1.9072 1.7326 -1.9072 c 1.1572 0 1.5285 .946 1.5285 1.725 c 0 .1674 -.0144 .2986 -.0292 .3786 l -2.3727 0 z m 1.5576 -.6263 l 0 0 c .0072 -.3273 -.1382 -.8661 -.7352 -.8661 c -.5533 0 -.7862 .5023 -.8224 .8661 l 1.5576 0 z" fill="#969696" fill-rule="nonzero"/>
      <path id="_129162872" d="M 37.4261 35.5529 c 0 -.4079 -.0072 -.7496 -.0289 -1.0556 l .7862 0 l .0437 .5313 l .0217 0 c .153 -.2763 .5385 -.6112 1.1283 -.6112 c .6187 0 1.2592 .4003 1.2592 1.5214 l 0 2.1035 l -.8954 0 l 0 -2.0015 c 0 -.5099 -.1892 -.8958 -.677 -.8958 c -.3565 0 -.6039 .255 -.6987 .5243 c -.0292 .08 -.0365 .1892 -.0365 .2912 l 0 2.0818 l -.9026 0 l 0 -2.4894 z" fill="#969696" fill-rule="nonzero"/>
      <path id="_124347800" d="M 42.5796 33.5875 l 0 .9098 l .8517 0 l 0 .6698 l -.8517 0 l 0 1.5647 c 0 .4296 .1168 .6553 .4589 .6553 c .1671 0 .2474 -.0145 .3493 -.0438 l .0145 .6842 c -.1309 .051 -.3638 .0948 -.6477 .0948 c -.3276 0 -.6042 -.1165 -.7717 -.2984 c -.1891 -.2039 -.2766 -.5243 -.2766 -.9901 l 0 -1.6667 l -.5095 0 l 0 -.6698 l .5095 0 l 0 -.6552 l .8733 -.2546 z" fill="#969696" fill-rule="nonzero"/>
      <path id="_124346000" d="M 44.1082 35.6404 c 0 -.4806 -.0072 -.8227 -.0289 -1.1431 l .7789 0 l .029 .677 l .0292 0 c .1747 -.5019 .5895 -.7569 .9681 -.7569 c .0872 0 .1382 .0072 .2108 .0217 l 0 .8444 c -.0726 -.0145 -.1526 -.0289 -.2618 -.0289 c -.4296 0 -.7207 .2763 -.8006 .6766 c -.0148 .0803 -.0293 .175 -.0293 .277 l 0 1.8341 l -.8954 0 l 0 -2.4019 z" fill="#969696" fill-rule="nonzero"/>
      <path id="_124346240" d="M 47.2674 36.521 c .0217 .6404 .524 .9171 1.0917 .9171 c .4148 0 .7132 -.0582 .9826 -.1602 l .1309 .6187 c -.3056 .1237 -.7276 .2257 -1.2372 .2257 c -1.1503 0 -1.8272 -.7132 -1.8272 -1.7977 c 0 -.9829 .597 -1.9072 1.7325 -1.9072 c 1.1572 0 1.5286 .946 1.5286 1.725 c 0 .1674 -.0145 .2986 -.0293 .3786 l -2.3726 0 z m 1.5575 -.6263 l 0 0 c .0073 -.3273 -.1382 -.8661 -.7352 -.8661 c -.5533 0 -.7862 .5023 -.8223 .8661 l 1.5575 0 z" fill="#969696" fill-rule="nonzero"/>
      <path id="_124346336" d="M 51.9981 38.0423 l 0 -2.8752 l -.4803 0 l 0 -.6698 l .4803 0 l 0 -.1529 c 0 -.4582 .1236 -.9171 .4296 -1.2079 c .2618 -.2477 .6187 -.3424 .9243 -.3424 c .2401 0 .4296 .0365 .575 .0875 l -.0655 .6914 c -.0947 -.0362 -.2184 -.0654 -.3786 -.0654 c -.4437 0 -.5967 .371 -.5967 .8078 l 0 .1819 l .779 0 l 0 .6698 l -.7718 0 l 0 2.8752 l -.8953 0 z" fill="#969696" fill-rule="nonzero"/>
      <path id="_124346408" d="M 57.5082 36.2371 c 0 1.303 -.9171 1.8852 -1.8197 1.8852 c -1.0046 0 -1.7763 -.6918 -1.7763 -1.8269 c 0 -1.1649 .7644 -1.878 1.8345 -1.878 c 1.0552 0 1.7615 .7424 1.7615 1.8197 z m -2.6714 .0365 l 0 0 c 0 .6842 .3349 1.201 .8806 1.201 c .5096 0 .8661 -.5023 .8661 -1.2158 c 0 -.5529 -.2474 -1.1861 -.8589 -1.1861 c -.6332 0 -.8878 .6111 -.8878 1.2009 z" fill="#969696" fill-rule="nonzero"/>
      <path id="_124346480" d="M 58.243 35.6404 c 0 -.4806 -.0072 -.8227 -.0289 -1.1431 l .7789 0 l .0289 .677 l .0293 0 c .1747 -.5019 .5895 -.7569 .9681 -.7569 c .0871 0 .1382 .0072 .2108 .0217 l 0 .8444 c -.0726 -.0145 -.1526 -.0289 -.2618 -.0289 c -.4296 0 -.7207 .2763 -.8006 .6766 c -.0148 .0803 -.0293 .175 -.0293 .277 l 0 1.8341 l -.8954 0 l 0 -2.4019 z" fill="#969696" fill-rule="nonzero"/>
      <path id="_124346552" d="M 62.3771 33.202 c .3349 -.0586 .8372 -.102 1.354 -.102 c .7058 0 1.1864 .1164 1.5137 .3927 c .2694 .226 .4224 .5678 .4224 .9829 c 0 .6333 -.4296 1.0628 -.8881 1.2303 l 0 .0217 c .3493 .1309 .5605 .473 .6841 .9464 c .153 .6111 .2839 1.1789 .3859 1.3683 l -.9243 0 c -.0727 -.1457 -.1892 -.546 -.3277 -1.1575 c -.1381 -.6405 -.371 -.844 -.8805 -.8589 l -.4513 0 l 0 2.0164 l -.8882 0 l 0 -4.8403 z m .8882 2.169 l 0 0 l .5312 0 c .6043 0 .9826 -.3204 .9826 -.8082 c 0 -.5385 -.3783 -.7862 -.9609 -.7862 c -.2839 0 -.4658 .0221 -.5529 .0441 l 0 1.5503 z" fill="#969696" fill-rule="nonzero"/>
      <path id="_124346624" d="M 67.1372 36.521 c .0217 .6404 .524 .9171 1.0918 .9171 c .4147 0 .7131 -.0582 .9825 -.1602 l .1309 .6187 c -.3056 .1237 -.7276 .2257 -1.2371 .2257 c -1.1503 0 -1.8273 -.7132 -1.8273 -1.7977 c 0 -.9829 .5971 -1.9072 1.7325 -1.9072 c 1.1573 0 1.5286 .946 1.5286 1.725 c 0 .1674 -.0144 .2986 -.0293 .3786 l -2.3726 0 z m 1.5576 -.6263 l 0 0 c .0072 -.3273 -.1382 -.8661 -.7352 -.8661 c -.5533 0 -.7862 .5023 -.8224 .8661 l 1.5576 0 z" fill="#969696" fill-rule="nonzero"/>
      <path id="_124346648" d="M 70.2161 37.2197 c .2035 .1236 .5894 .2549 .9098 .2549 c .393 0 .5677 -.1606 .5677 -.3934 c 0 -.2398 -.1457 -.3639 -.5826 -.5168 c -.6914 -.2398 -.9824 -.6188 -.9752 -1.0335 c 0 -.6257 .5167 -1.1135 1.3394 -1.1135 c .3931 0 .7352 .102 .9388 .2109 l -.1747 .6332 c -.1526 -.0872 -.4365 -.2037 -.7497 -.2037 c -.3204 0 -.495 .1527 -.495 .3711 c 0 .226 .1674 .3348 .6187 .4954 c .6405 .2329 .9392 .5602 .9464 1.0845 c 0 .6401 -.5023 1.1135 -1.4411 1.1135 c -.4296 0 -.8155 -.1092 -1.0772 -.255 l .1747 -.6476 z" fill="#969696" fill-rule="nonzero"/>
      <path id="_107160824" d="M 73.9281 36.521 c .0217 .6404 .524 .9171 1.0918 .9171 c .4147 0 .7131 -.0582 .9825 -.1602 l .1309 .6187 c -.3056 .1237 -.7276 .2257 -1.2371 .2257 c -1.1504 0 -1.8273 -.7132 -1.8273 -1.7977 c 0 -.9829 .597 -1.9072 1.7325 -1.9072 c 1.1572 0 1.5286 .946 1.5286 1.725 c 0 .1674 -.0145 .2986 -.0293 .3786 l -2.3726 0 z m 1.5575 -.6263 l 0 0 c .0073 -.3273 -.1381 -.8661 -.7352 -.8661 c -.5533 0 -.7861 .5023 -.8223 .8661 l 1.5575 0 z" fill="#969696" fill-rule="nonzero"/>
      <path id="_129073072" d="M 79.802 37.1907 c 0 .3201 .0144 .6332 .0509 .8516 l -.8082 0 l -.0582 -.3934 l -.0217 0 c -.2184 .277 -.5894 .4734 -1.048 .4734 c -.7135 0 -1.1138 -.5168 -1.1138 -1.0556 c 0 -.895 .7934 -1.3463 2.1036 -1.3391 l 0 -.0583 c 0 -.2328 -.0947 -.6187 -.7207 -.6187 c -.3494 0 -.7131 .1092 -.9533 .2618 l -.1746 -.5822 c .2618 -.1598 .7203 -.3128 1.2809 -.3128 c 1.1354 0 1.4631 .7207 1.4631 1.4921 l 0 1.2812 z m -.8737 -.8809 l 0 0 c -.6332 -.0144 -1.2371 .1237 -1.2371 .6625 c 0 .3493 .2256 .5092 .5095 .5092 c .3566 0 .6187 -.2329 .6987 -.4875 c .0216 -.0654 .0289 -.1382 .0289 -.1967 l 0 -.4875 z" fill="#969696" fill-rule="nonzero"/>
      <path id="_129073168" d="M 80.748 35.6404 c 0 -.4806 -.0073 -.8227 -.029 -1.1431 l .779 0 l .0289 .677 l .0293 0 c .1747 -.5019 .5895 -.7569 .9681 -.7569 c .0872 0 .1381 .0072 .2108 .0217 l 0 .8444 c -.0727 -.0145 -.1526 -.0289 -.2618 -.0289 c -.4296 0 -.7207 .2763 -.8006 .6766 c -.0148 .0803 -.0293 .175 -.0293 .277 l 0 1.8341 l -.8954 0 l 0 -2.4019 z" fill="#969696" fill-rule="nonzero"/>
      <path id="_129073264" d="M 85.8795 37.9328 c -.1892 .0875 -.5605 .1895 -1.0043 .1895 c -1.1065 0 -1.8273 -.7132 -1.8273 -1.8125 c 0 -1.0628 .728 -1.8924 1.9727 -1.8924 c .3276 0 .6625 .0727 .8661 .1674 l -.1599 .6698 c -.1457 -.0655 -.3569 -.1385 -.6769 -.1385 c -.6842 0 -1.0921 .5023 -1.0845 1.1499 c 0 .728 .473 1.1431 1.0845 1.1431 c .3128 0 .5312 -.0658 .7059 -.1385 l .1237 .6622 z" fill="#969696" fill-rule="nonzero"/>
      <path id="_129073400" d="M 86.5416 32.874 l .9026 0 l 0 2.1112 l .0148 0 c .1089 -.1675 .2619 -.3128 .4438 -.4079 c .1746 -.1017 .3858 -.1599 .6115 -.1599 c .6042 0 1.2374 .4003 1.2374 1.5358 l 0 2.0891 l -.8953 0 l 0 -1.9871 c 0 -.5168 -.1892 -.9026 -.6842 -.9026 c -.3494 0 -.5967 .2329 -.6915 .5023 c -.0292 .0727 -.0365 .1674 -.0365 .2694 l 0 2.118 l -.9026 0 l 0 -5.1683 z" fill="#969696" fill-rule="nonzero"/>
      <path id="_129073496" d="M 95.5819 36.2371 c 0 1.303 -.9171 1.8852 -1.8197 1.8852 c -1.0046 0 -1.7763 -.6918 -1.7763 -1.8269 c 0 -1.1649 .7645 -1.878 1.8345 -1.878 c 1.0552 0 1.7615 .7424 1.7615 1.8197 z m -2.6713 .0365 l 0 0 c 0 .6842 .3348 1.201 .8805 1.201 c .5095 0 .8661 -.5023 .8661 -1.2158 c 0 -.5529 -.2473 -1.1861 -.8588 -1.1861 c -.6332 0 -.8878 .6111 -.8878 1.2009 z" fill="#969696" fill-rule="nonzero"/>
      <path id="_129073592" d="M 96.3167 35.5529 c 0 -.4079 -.0072 -.7496 -.0289 -1.0556 l .7862 0 l .0437 .5313 l .0217 0 c .153 -.2763 .5385 -.6112 1.1283 -.6112 c .6187 0 1.2592 .4003 1.2592 1.5214 l 0 2.1035 l -.8954 0 l 0 -2.0015 c 0 -.5099 -.1891 -.8958 -.677 -.8958 c -.3566 0 -.6039 .255 -.6986 .5243 c -.0293 .08 -.0366 .1892 -.0366 .2912 l 0 2.0818 l -.9026 0 l 0 -2.4894 z" fill="#969696" fill-rule="nonzero"/>
      <path id="_129073688" d="M 19.4118 45.175 c -.2112 .1096 -.677 .2261 -1.2664 .2261 c -1.5579 0 -2.5039 -.9829 -2.5039 -2.475 c 0 -1.6157 1.1207 -2.5914 2.6203 -2.5914 c .5895 0 1.0115 .124 1.1938 .2184 l -.1967 .7132 c -.2329 -.1017 -.5533 -.1888 -.9609 -.1888 c -.997 0 -1.7177 .6256 -1.7177 1.8048 c 0 1.0773 .6332 1.7688 1.7105 1.7688 c .3641 0 .7424 -.0727 .9753 -.1819 l .1457 .7058 z" fill="#969696" fill-rule="nonzero"/>
      <path id="_129073784" d="M 20.1177 42.9189 c 0 -.4806 -.0072 -.8224 -.0289 -1.1428 l .7789 0 l .029 .6767 l .0293 0 c .1746 -.502 .5894 -.7566 .968 -.7566 c .0872 0 .1382 .0069 .2109 .0214 l 0 .8447 c -.0727 -.0145 -.1527 -.0293 -.2619 -.0293 c -.4296 0 -.7207 .2767 -.8006 .677 c -.0148 .0799 -.0293 .1747 -.0293 .2763 l 0 1.8345 l -.8954 0 l 0 -2.4019 z" fill="#969696" fill-rule="nonzero"/>
      <path id="_129073880" d="M 23.4291 41.7761 l .6407 1.8996 c .0727 .2185 .1454 .4879 .1964 .6915 l .0217 0 c .0582 -.2036 .124 -.4658 .1895 -.6987 l .5529 -1.8924 l .9609 0 l -.8878 2.4164 c -.4879 1.325 -.8155 1.9145 -1.2375 2.2783 c -.3494 .3131 -.7135 .4296 -.9392 .4585 l -.2035 -.7569 c .1529 -.0361 .342 -.1164 .5239 -.2477 c .1675 -.1088 .3638 -.32 .4879 -.5601 c .0361 -.0655 .0582 -.1165 .0582 -.1602 c 0 -.0362 -.0072 -.0872 -.051 -.1747 l -1.2956 -3.2536 l .9825 0 z" fill="#969696" fill-rule="nonzero"/>
      <path id="_129073976" d="M 26.5079 42.9551 c 0 -.4658 -.0144 -.8441 -.0289 -1.179 l .7862 0 l .0437 .5458 l .0145 0 c .2618 -.4004 .6769 -.6257 1.2154 -.6257 c .8151 0 1.4921 .6987 1.4921 1.8049 c 0 1.2812 -.8079 1.9 -1.6158 1.9 c -.444 0 -.8151 -.1895 -.9973 -.4734 l -.0145 0 l 0 1.8342 l -.8954 0 l 0 -3.8068 z m .8954 .8809 l 0 0 c 0 .0871 .0072 .1674 .0293 .2477 c .0872 .3637 .4076 .6256 .7858 .6256 c .5678 0 .9026 -.473 .9026 -1.172 c 0 -.6257 -.3056 -1.1355 -.8805 -1.1355 c -.3714 0 -.7135 .2694 -.8007 .6628 c -.022 .0723 -.0365 .1526 -.0365 .2253 l 0 .5461 z" fill="#969696" fill-rule="nonzero"/>
      <path id="_129074072" d="M 31.7924 40.8659 l 0 .9102 l .8516 0 l 0 .6698 l -.8516 0 l 0 1.5647 c 0 .4293 .1168 .6553 .4589 .6553 c .167 0 .2473 -.0148 .3493 -.0441 l .0144 .6842 c -.1309 .051 -.3637 .0951 -.6476 .0951 c -.3277 0 -.6043 -.1165 -.7717 -.2987 c -.1892 -.2036 -.2767 -.524 -.2767 -.9898 l 0 -1.6667 l -.5095 0 l 0 -.6698 l .5095 0 l 0 -.6552 l .8734 -.255 z" fill="#969696" fill-rule="nonzero"/>
      <path id="_129074168" d="M 36.6479 43.5159 c 0 1.3026 -.9171 1.8852 -1.8197 1.8852 c -1.0046 0 -1.7763 -.6918 -1.7763 -1.8273 c 0 -1.1645 .7645 -1.8776 1.8345 -1.8776 c 1.0552 0 1.7615 .7421 1.7615 1.8197 z m -2.6714 .0362 l 0 0 c 0 .6842 .3349 1.201 .8806 1.201 c .5095 0 .8661 -.5024 .8661 -1.2158 c 0 -.553 -.2473 -1.1862 -.8589 -1.1862 c -.6332 0 -.8878 .6115 -.8878 1.201 z" fill="#969696" fill-rule="nonzero"/>
      <path id="_129074264" d="M 40.5929 44.804 c 0 .7425 -.153 1.2737 -.5241 1.6086 c -.3713 .3276 -.8808 .4292 -1.3683 .4292 c -.4514 0 -.9319 -.0944 -1.2375 -.2839 l .1964 -.6766 c .2256 .1309 .6042 .2694 1.0335 .2694 c .5825 0 1.019 -.3059 1.019 -1.07 l 0 -.3059 l -.0144 0 c -.2036 .3131 -.5678 .5243 -1.0336 .5243 c -.8809 0 -1.5069 -.728 -1.5069 -1.7325 c 0 -1.1648 .7573 -1.8704 1.6089 -1.8704 c .5385 0 .8589 .2618 1.0263 .5529 l .0145 0 l .0365 -.473 l .7786 0 c -.0145 .2401 -.0289 .5313 -.0289 1.0191 l 0 2.0088 z m -.8954 -1.6085 l 0 0 c 0 -.0802 -.0073 -.1674 -.029 -.2404 c -.0947 -.3274 -.3496 -.5747 -.7279 -.5747 c -.5023 0 -.8737 .4365 -.8737 1.1569 c 0 .6043 .3059 1.0921 .8665 1.0921 c .3348 0 .6259 -.2185 .7276 -.5389 c .022 -.0943 .0365 -.2184 .0365 -.3204 l 0 -.5746 z" fill="#969696" fill-rule="nonzero"/>
      <path id="_129074360" d="M 41.5241 42.9189 c 0 -.4806 -.0073 -.8224 -.029 -1.1428 l .779 0 l .0289 .6767 l .0293 0 c .1747 -.502 .5894 -.7566 .9681 -.7566 c .0871 0 .1381 .0069 .2108 .0214 l 0 .8447 c -.0727 -.0145 -.1526 -.0293 -.2618 -.0293 c -.4296 0 -.7207 .2767 -.8007 .677 c -.0148 .0799 -.0293 .1747 -.0293 .2763 l 0 1.8345 l -.8953 0 l 0 -2.4019 z" fill="#969696" fill-rule="nonzero"/>
      <path id="_129074456" d="M 46.8013 44.4692 c 0 .32 .0144 .6332 .0509 .8516 l -.8082 0 l -.0582 -.3931 l -.0217 0 c -.2184 .2767 -.5894 .4734 -1.048 .4734 c -.7135 0 -1.1138 -.5168 -1.1138 -1.0556 c 0 -.8954 .7934 -1.3467 2.1036 -1.3395 l 0 -.0579 c 0 -.2332 -.0948 -.6187 -.7207 -.6187 c -.3494 0 -.7132 .1089 -.9533 .2618 l -.1747 -.5822 c .2619 -.1602 .7204 -.3128 1.2809 -.3128 c 1.1355 0 1.4632 .7204 1.4632 1.4917 l 0 1.2813 z m -.8737 -.8809 l 0 0 c -.6332 -.0145 -1.2372 .124 -1.2372 .6624 c 0 .3497 .2257 .5096 .5096 .5096 c .3565 0 .6187 -.2329 .6986 -.4878 c .0217 -.0655 .029 -.1382 .029 -.1964 l 0 -.4878 z" fill="#969696" fill-rule="nonzero"/>
      <path id="_129074552" d="M 47.7473 42.9551 c 0 -.4658 -.0145 -.8441 -.029 -1.179 l .7862 0 l .0438 .5458 l .0144 0 c .2619 -.4004 .677 -.6257 1.2154 -.6257 c .8151 0 1.492 .6987 1.492 1.8049 c 0 1.2812 -.8079 1.9 -1.6156 1.9 c -.4441 0 -.8151 -.1895 -.9974 -.4734 l -.0145 0 l 0 1.8342 l -.8953 0 l 0 -3.8068 z m .8953 .8809 l 0 0 c 0 .0871 .0073 .1674 .0294 .2477 c .0871 .3637 .4075 .6256 .7861 .6256 c .5673 0 .9022 -.473 .9022 -1.172 c 0 -.6257 -.3056 -1.1355 -.8805 -1.1355 c -.3713 0 -.7135 .2694 -.8006 .6628 c -.0221 .0723 -.0366 .1526 -.0366 .2253 l 0 .5461 z" fill="#969696" fill-rule="nonzero"/>
      <path id="_129074648" d="M 52.0053 40.1528 l .9026 0 l 0 2.1112 l .0149 0 c .1088 -.1675 .2618 -.3132 .4437 -.408 c .1746 -.1019 .3858 -.1598 .6115 -.1598 c .6043 0 1.2375 .4003 1.2375 1.5358 l 0 2.0888 l -.8954 0 l 0 -1.9871 c 0 -.5168 -.1891 -.9027 -.6842 -.9027 c -.3494 0 -.5967 .2333 -.6914 .5024 c -.0293 .0726 -.0366 .1674 -.0366 .2693 l 0 2.1181 l -.9026 0 l 0 -5.168 z" fill="#969696" fill-rule="nonzero"/>
      <path id="_129074744" d="M 56.6128 41.7761 l .6408 1.8996 c .0727 .2185 .1454 .4879 .1964 .6915 l .0217 0 c .0582 -.2036 .124 -.4658 .1894 -.6987 l .553 -1.8924 l .9608 0 l -.8878 2.4164 c -.4878 1.325 -.8154 1.9145 -1.2375 2.2783 c -.3493 .3131 -.7135 .4296 -.9391 .4585 l -.2036 -.7569 c .1529 -.0361 .3421 -.1164 .524 -.2477 c .1674 -.1088 .3638 -.32 .4878 -.5601 c .0362 -.0655 .0582 -.1165 .0582 -.1602 c 0 -.0362 -.0072 -.0872 -.051 -.1747 l -1.2956 -3.2536 l .9825 0 z" fill="#969696" fill-rule="nonzero"/>
      <path id="_129074840" d="M 63.9498 44.4692 c 0 .32 .0145 .6332 .051 .8516 l -.8082 0 l -.0583 -.3931 l -.0217 0 c -.2184 .2767 -.5894 .4734 -1.048 .4734 c -.7134 0 -1.1137 -.5168 -1.1137 -1.0556 c 0 -.8954 .7934 -1.3467 2.1035 -1.3395 l 0 -.0579 c 0 -.2332 -.0947 -.6187 -.7207 -.6187 c -.3493 0 -.7131 .1089 -.9532 .2618 l -.1747 -.5822 c .2618 -.1602 .7203 -.3128 1.2809 -.3128 c 1.1355 0 1.4631 .7204 1.4631 1.4917 l 0 1.2813 z m -.8737 -.8809 l 0 0 c -.6332 -.0145 -1.2371 .124 -1.2371 .6624 c 0 .3497 .2256 .5096 .5095 .5096 c .3566 0 .6188 -.2329 .6987 -.4878 c .0217 -.0655 .0289 -.1382 .0289 -.1964 l 0 -.4878 z" fill="#969696" fill-rule="nonzero"/>
      <path id="_129074936" d="M 64.8958 42.8314 c 0 -.4076 -.0072 -.7497 -.0289 -1.0553 l .7862 0 l .0437 .5313 l .0217 0 c .153 -.2767 .5385 -.6112 1.1283 -.6112 c .6187 0 1.2592 .4003 1.2592 1.521 l 0 2.1036 l -.8954 0 l 0 -2.0016 c 0 -.5095 -.1891 -.8954 -.677 -.8954 c -.3566 0 -.6039 .255 -.6986 .5243 c -.0293 .08 -.0366 .1888 -.0366 .2908 l 0 2.0819 l -.9026 0 l 0 -2.4894 z" fill="#969696" fill-rule="nonzero"/>
      <path id="_129075032" d="M 72.3275 40.1528 l 0 4.1706 c 0 .3642 .0145 .7573 .0289 .9974 l -.8006 0 l -.0362 -.5605 l -.0148 0 c -.2108 .3931 -.6404 .6408 -1.1572 .6408 c -.8443 0 -1.514 -.7208 -1.514 -1.8128 c -.0073 -1.1865 .7352 -1.8921 1.5867 -1.8921 c .4878 0 .8371 .2036 .9973 .4658 l .0145 0 l 0 -2.0092 l .8954 0 z m -.8954 3.1006 l 0 0 c 0 -.0724 -.0072 -.1598 -.0217 -.2329 c -.0802 -.3493 -.3641 -.6332 -.7717 -.6332 c -.5749 0 -.8953 .5099 -.8953 1.172 c 0 .6477 .3204 1.121 .8881 1.121 c .3638 0 .6842 -.2473 .7717 -.6332 c .0217 -.0802 .0289 -.1674 .0289 -.2621 l 0 -.5316 z" fill="#969696" fill-rule="nonzero"/>
      <path id="_129075128" d="M 74.8094 44.3455 c .2911 .1674 .7276 .3128 1.1864 .3128 c .575 0 .8951 -.2694 .8951 -.6697 c 0 -.3711 -.2474 -.5895 -.8734 -.8151 c -.8079 -.2912 -1.3246 -.7207 -1.3246 -1.4266 c 0 -.8007 .6694 -1.4122 1.7322 -1.4122 c .5312 0 .9243 .1164 1.1792 .2474 l -.2184 .7207 c -.1746 -.0944 -.5167 -.2329 -.9753 -.2329 c -.5677 0 -.8151 .3059 -.8151 .5898 c 0 .3783 .2835 .5533 .9388 .8079 c .8516 .32 1.2664 .7496 1.2664 1.4555 c 0 .7862 -.5967 1.478 -1.8631 1.478 c -.5171 0 -1.0556 -.153 -1.325 -.3132 l .1968 -.7424 z" fill="#969696" fill-rule="nonzero"/>
      <path id="_129075224" d="M 79.2494 43.7998 c .0217 .6401 .524 .9171 1.0917 .9171 c .4148 0 .7132 -.0586 .9826 -.1606 l .1309 .6187 c -.3056 .1241 -.7276 .2261 -1.2371 .2261 c -1.1504 0 -1.8273 -.7135 -1.8273 -1.798 c 0 -.9829 .597 -1.9069 1.7325 -1.9069 c 1.1572 0 1.5286 .946 1.5286 1.7246 c 0 .1675 -.0145 .2987 -.0293 .379 l -2.3726 0 z m 1.5575 -.6263 l 0 0 c .0073 -.3273 -.1382 -.8661 -.7352 -.8661 c -.5533 0 -.7862 .5023 -.8223 .8661 l 1.5575 0 z" fill="#969696" fill-rule="nonzero"/>
      <path id="_129075320" d="M 84.9775 45.2116 c -.1891 .0875 -.5605 .1895 -1.0042 .1895 c -1.1066 0 -1.8273 -.7135 -1.8273 -1.8128 c 0 -1.0625 .728 -1.8921 1.9727 -1.8921 c .3276 0 .6625 .0724 .8661 .1671 l -.1599 .6697 c -.1457 -.0654 -.3569 -.1381 -.6769 -.1381 c -.6842 0 -1.0922 .5023 -1.0846 1.15 c 0 .7276 .4731 1.1427 1.0846 1.1427 c .3128 0 .5312 -.0658 .7059 -.1382 l .1236 .6622 z" fill="#969696" fill-rule="nonzero"/>
      <path id="_129389816" d="M 88.8133 44.258 c 0 .4223 .0145 .7717 .0293 1.0628 l -.7862 0 l -.0437 -.5385 l -.0145 0 c -.153 .2546 -.5023 .6188 -1.1355 .6188 c -.6477 0 -1.2375 -.3859 -1.2375 -1.5434 l 0 -2.0816 l .8954 0 l 0 1.9286 c 0 .5898 .1891 .9681 .6625 .9681 c .3566 0 .5895 -.2546 .6842 -.4803 c .0289 -.0799 .0506 -.1746 .0506 -.2763 l 0 -2.1401 l .8954 0 l 0 2.4819 z" fill="#969696" fill-rule="nonzero"/>
      <path id="_129389912" d="M 89.781 42.9189 c 0 -.4806 -.0072 -.8224 -.0289 -1.1428 l .7789 0 l .029 .6767 l .0292 0 c .1747 -.502 .5895 -.7566 .9681 -.7566 c .0872 0 .1382 .0069 .2109 .0214 l 0 .8447 c -.0727 -.0145 -.1527 -.0293 -.2618 -.0293 c -.4297 0 -.7208 .2767 -.8007 .677 c -.0148 .0799 -.0293 .1747 -.0293 .2763 l 0 1.8345 l -.8954 0 l 0 -2.4019 z" fill="#969696" fill-rule="nonzero"/>
      <path id="_129390008" d="M 93.3257 40.786 c 0 .2694 -.1964 .4803 -.5095 .4803 c -.2984 0 -.4947 -.2109 -.4947 -.4803 c 0 -.2763 .2035 -.4878 .5019 -.4878 c .3059 0 .4951 .2115 .5023 .4878 z m -.9536 4.5348 l 0 0 l 0 -3.5447 l .9026 0 l 0 3.5447 l -.9026 0 z" fill="#969696" fill-rule="nonzero"/>
      <path id="_129390104" d="M 95.2619 40.8659 l 0 .9102 l .8516 0 l 0 .6698 l -.8516 0 l 0 1.5647 c 0 .4293 .1167 .6553 .4588 .6553 c .1671 0 .2474 -.0148 .3494 -.0441 l .0144 .6842 c -.1309 .051 -.3638 .0951 -.6476 .0951 c -.3277 0 -.6043 -.1165 -.7717 -.2987 c -.1892 -.2036 -.2767 -.524 -.2767 -.9898 l 0 -1.6667 l -.5095 0 l 0 -.6698 l .5095 0 l 0 -.6552 l .8734 -.255 z" fill="#969696" fill-rule="nonzero"/>
      <path id="_129390200" d="M 97.4019 41.7761 l .6408 1.8996 c .0727 .2185 .1454 .4879 .1964 .6915 l .0217 0 c .0582 -.2036 .124 -.4658 .1895 -.6987 l .5529 -1.8924 l .9609 0 l -.8878 2.4164 c -.4879 1.325 -.8155 1.9145 -1.2375 2.2783 c -.3494 .3131 -.7135 .4296 -.9392 .4585 l -.2036 -.7569 c .153 -.0361 .3421 -.1164 .524 -.2477 c .1674 -.1088 .3638 -.32 .4879 -.5601 c .0361 -.0655 .0582 -.1165 .0582 -.1602 c 0 -.0362 -.0072 -.0872 -.051 -.1747 l -1.2957 -3.2536 l .9825 0 z" fill="#969696" fill-rule="nonzero"/>
    </g>
  </g>
</svg>
