<?xml version="1.0" encoding="UTF-8" standalone="no"?>
<!-- Created with Inkscape (http://www.inkscape.org/) -->

<svg
   width="256"
   height="256"
   viewBox="0 0 256 256"
   version="1.1"
   id="svg936"
   xmlns="http://www.w3.org/2000/svg"
   xmlns:svg="http://www.w3.org/2000/svg">
  <g
     id="layer1">
    <path
       d="m 2e-6,255.4896 c 0,0 83.064982,-265.541425 255.999998,-254.65328441 0,0 -21.44674,34.73459441 -75.57939,45.95937541 0,0 25.20032,3.073023 45.62271,-3.739188 0,0 -12.2563,39.505255 -78.97476,44.935017 0,0 36.76894,9.53425 53.10829,4.08304 0,0 -4.43405,29.44809 -72.36307,44.08258 -4.02576,0.8596 -31.138642,7.64319 -9.35521,10.3724 0,0 31.31052,5.46556 39.49813,2.72917 0,0 -26.8192,40.16431 -92.606424,36.76176 -6.468408,-0.33691 -9.541433,0 -9.541433,0 z"
       id="path1075"
       style="fill:#044fb3;stroke-width:7.16324" />
  </g>
</svg>
