<?xml version="1.0" encoding="utf-8"?>
<!DOCTYPE svg PUBLIC "-//W3C//DTD SVG 1.1//EN" "http://www.w3.org/Graphics/SVG/1.1/DTD/svg11.dtd">
<svg version="1.1" id="Vrstva_1" xmlns="http://www.w3.org/2000/svg" xmlns:xlink="http://www.w3.org/1999/xlink" x="0px" y="0px"
	 width="373.155px" height="101.919px" viewBox="0 0 373.155 101.919" enable-background="new 0 0 373.155 101.919"
	 xml:space="preserve">




<polygon fill="#FFFFFF" points="170.254,53.675 168.386,53.675 168.386,43.574 168.351,43.574 164.354,48.595 164.052,48.595 160.06,43.574 
	160.021,43.574 160.021,53.675 158.156,53.675 158.156,40.705 159.905,40.705 164.205,46.027 168.524,40.705 170.254,40.705 "/>
<rect fill="#FFFFFF" x="174.028" y="40.704" width="1.867" height="12.97"/>
<polygon fill="#FFFFFF" points="191.723,53.675 190.123,53.675 181.446,43.689 181.446,53.675 179.7,53.675 179.7,40.705 181.184,40.705 
	189.972,50.748 189.972,40.705 191.723,40.705 "/>
<rect fill="#FFFFFF" x="195.554" y="40.704" width="1.863" height="12.97"/>
<g>
	<path fill="#FFFFFF" d="M207.41,43.554c-1.108-1.044-2.172-1.351-3.045-1.351c-1.202,0-2.056,0.631-2.056,1.541c0,2.492,5.61,2.455,5.61,6.583
		c0,2.036-1.541,3.517-3.63,3.517c-1.411,0-2.55-0.377-3.637-1.196V50.29c0.953,1.217,2.15,1.882,3.426,1.882
		c1.445,0,2.109-0.914,2.109-1.634c0-2.683-5.609-2.988-5.609-6.548c0-2.109,1.561-3.461,3.941-3.461
		c0.986,0,1.974,0.305,2.89,0.915V43.554z"/>
</g>
<polygon fill="#FFFFFF" points="220.649,42.376 216.164,42.376 216.164,53.675 214.299,53.675 214.299,42.376 209.81,42.376 209.81,40.705 
	220.649,40.705 "/>
<polygon fill="#FFFFFF" points="230.722,42.376 225.226,42.376 225.226,46.295 230.532,46.295 230.532,47.966 225.226,47.966 225.226,52 230.89,52 
	230.89,53.675 223.362,53.675 223.362,40.705 230.722,40.705 "/>
<g >
	<path fill="#FFFFFF" d="M235.729,46.369h1.197c1.998,0,2.57-1.027,2.549-2.112c-0.018-1.215-0.741-1.96-2.549-1.96h-1.197V46.369z M237.14,40.705
		c2.622,0,4.263,1.383,4.263,3.628c0,1.504-0.784,2.627-2.174,3.18c1.183,0.779,1.901,1.978,2.896,3.594
		c0.551,0.894,0.871,1.332,1.769,2.568h-2.228l-1.712-2.664c-1.712-2.663-2.493-2.966-3.441-2.966h-0.782v5.63h-1.861v-12.97H237.14
		z"/>
	<path fill="#FFFFFF" d="M252.437,43.554c-1.101-1.044-2.167-1.351-3.043-1.351c-1.199,0-2.053,0.631-2.053,1.541c0,2.492,5.613,2.455,5.613,6.583
		c0,2.036-1.542,3.517-3.638,3.517c-1.404,0-2.545-0.377-3.633-1.196V50.29c0.956,1.217,2.153,1.882,3.429,1.882
		c1.444,0,2.109-0.914,2.109-1.634c0-2.683-5.611-2.988-5.611-6.548c0-2.109,1.562-3.461,3.938-3.461
		c0.983,0,1.978,0.305,2.888,0.915V43.554z"/>
</g>
<polygon fill="#FFFFFF" points="265.683,42.376 261.199,42.376 261.199,53.675 259.332,53.675 259.332,42.376 254.841,42.376 254.841,40.705 
	265.683,40.705 "/>
<polygon fill="#FFFFFF" points="272.956,53.787 272.576,53.787 266.966,40.704 268.829,40.704 272.727,49.813 276.608,40.704 278.455,40.704 "/>
<g>
	<path fill="#FFFFFF" d="M286.474,52.134c2.91,0,5.058-2.109,5.058-4.946c0-2.855-2.147-4.943-5.058-4.943c-2.893,0-5.042,2.088-5.042,4.943
		C281.432,50.024,283.581,52.134,286.474,52.134 M286.474,40.529c4.277,0,6.981,3.046,6.981,6.658c0,3.499-2.626,6.655-7.021,6.655
		c-4.242,0-6.924-3.136-6.924-6.655C279.511,43.591,282.267,40.529,286.474,40.529"/>
</g>
<polygon fill="#FFFFFF" points="307.589,53.787 307.212,53.787 301.602,40.704 303.464,40.704 307.364,49.813 311.246,40.704 313.091,40.704 "/>
<polygon fill="#FFFFFF" points="327.478,53.675 325.88,53.675 317.204,43.689 317.204,53.675 315.456,53.675 315.456,40.705 316.938,40.705 
	325.726,50.748 325.726,40.705 327.478,40.705 "/>
<rect fill="#FFFFFF" x="331.311" y="40.704" width="1.865" height="12.97"/>
<polygon fill="#FFFFFF" points="346.737,42.376 342.253,42.376 342.253,53.675 340.386,53.675 340.386,42.376 335.896,42.376 335.896,40.705 
	346.737,40.705 "/>
<g>
	<path fill="#FFFFFF" d="M351.35,46.369h1.199c1.995,0,2.565-1.027,2.547-2.112c-0.017-1.215-0.738-1.96-2.547-1.96h-1.199V46.369z M352.759,40.705
		c2.623,0,4.263,1.383,4.263,3.628c0,1.504-0.782,2.627-2.171,3.18c1.179,0.779,1.9,1.978,2.893,3.594
		c0.549,0.894,0.873,1.332,1.769,2.568h-2.226l-1.714-2.664c-1.711-2.663-2.491-2.966-3.441-2.966h-0.781v5.63h-1.866v-12.97
		H352.759z"/>
</g>
<path fill="#FFFFFF" d="M364.728,48.179h4.037l-2.095-4.702L364.728,48.179z M373.155,53.675h-1.9l-1.732-3.825h-5.516l-1.636,3.825h-1.902
	l5.573-13.048h1.311L373.155,53.675z"/>
<g>
	<path fill="#FFFFFF" d="M163.673,62.913l-2.282-2.227h1.144l2.181,1.198l2.192-1.198h1.139l-2.282,2.227H163.673z M169.245,66.432
		c-1.598-0.931-2.968-1.351-4.47-1.351c-2.971,0-5.178,2.111-5.178,4.967c0,2.908,2.131,4.923,5.253,4.923
		c1.467,0,3.063-0.511,4.528-1.463v2.035c-1.279,0.663-2.663,1.141-4.698,1.141c-4.87,0-7.001-3.747-7.001-6.469
		c0-3.954,2.989-6.846,7.115-6.846c1.332,0,2.682,0.324,4.45,1.063V66.432z"/>
</g>
<polygon fill="#FFFFFF" points="179.981,65.214 174.485,65.214 174.485,69.135 179.792,69.135 179.792,70.805 174.485,70.805 174.485,74.842 
	180.149,74.842 180.149,76.513 172.62,76.513 172.62,63.541 179.981,63.541 "/>
<g>
	<path fill="#FFFFFF" d="M189.251,66.394c-1.104-1.046-2.17-1.354-3.043-1.354c-1.198,0-2.055,0.63-2.055,1.545c0,2.489,5.611,2.454,5.611,6.58
		c0,2.037-1.541,3.521-3.635,3.521c-1.406,0-2.549-0.38-3.633-1.201v-2.358c0.953,1.221,2.149,1.886,3.424,1.886
		c1.444,0,2.11-0.914,2.11-1.638c0-2.682-5.607-2.985-5.607-6.544c0-2.108,1.559-3.46,3.935-3.46c0.993,0,1.979,0.306,2.893,0.916
		V66.394z"/>
</g>
<polygon fill="#FFFFFF" points="203.79,76.512 201.224,76.512 194.62,70.104 194.62,76.512 192.753,76.512 192.753,63.54 194.62,63.54 
	194.62,69.479 200.078,63.54 202.404,63.54 196.752,69.686 "/>
<path fill="#FFFFFF" d="M212.661,60.688l-2.454,2.227h-1.123l1.427-2.227H212.661z M213.556,65.214h-5.499v3.921h5.306v1.67h-5.306v4.037h5.667
	v1.671h-7.533V63.541h7.365V65.214z"/>
<g>
	<path fill="#FFFFFF" d="M227.746,69.211h1.2c1.994,0,2.568-1.032,2.548-2.114c-0.019-1.218-0.74-1.958-2.548-1.958h-1.2V69.211z M229.155,63.54
		c2.623,0,4.262,1.39,4.262,3.632c0,1.504-0.78,2.627-2.169,3.177c1.179,0.781,1.9,1.979,2.893,3.598
		c0.549,0.896,0.871,1.331,1.769,2.565h-2.225l-1.718-2.663c-1.71-2.661-2.488-2.968-3.44-2.968h-0.78v5.631h-1.865V63.54H229.155z"
		/>
</g>
<polygon fill="#FFFFFF" points="245.653,65.214 240.156,65.214 240.156,69.135 245.462,69.135 245.462,70.805 240.156,70.805 240.156,74.842 
	245.824,74.842 245.824,76.513 238.294,76.513 238.294,63.541 245.653,63.541 "/>
<g>
	<path fill="#FFFFFF" d="M250.527,69.227h2.11c1.393,0,2.285-0.741,2.285-2.034c0-0.951-0.517-1.979-2.209-1.979h-2.187V69.227z M252.714,63.54
		c2.835,0,4.128,1.673,4.128,3.729c0,2.032-1.368,3.635-4.37,3.635h-1.944v5.608h-1.863V63.54H252.714z"/>
	<path fill="#FFFFFF" d="M270.315,71.414c0,3.177-1.901,5.271-5.762,5.271c-2.737,0-5.399-1.544-5.399-5.077V63.54h1.86v7.664
		c0,1.469,0.193,2.074,0.78,2.665c0.746,0.742,1.675,1.102,2.796,1.102c1.431,0,2.452-0.454,3.045-1.044
		c0.666-0.667,0.817-1.617,0.817-2.835V63.54h1.862V71.414z"/>
	<path fill="#FFFFFF" d="M275.706,74.842h2.341c2.192,0,2.78-1.09,2.78-2.058c0-1.176-0.915-2.015-2.877-2.015h-2.244V74.842z M275.706,69.093
		h1.239c1.843,0,2.739-0.684,2.739-2.073c0-0.969-0.554-1.807-2.265-1.807h-1.714V69.093z M273.843,63.54h3.77
		c2.793,0,3.994,1.673,3.994,3.312c0,1.35-0.629,2.222-1.978,2.774v0.039c1.937,0.36,3.117,1.638,3.117,3.386
		c0,1.6-1.195,3.461-4.452,3.461h-4.451V63.54z"/>
</g>
<polygon fill="#FFFFFF" points="287.356,74.842 293.217,74.842 293.217,76.512 285.496,76.512 285.496,63.54 287.356,63.54 "/>
<rect fill="#FFFFFF" x="295.807" y="63.54" width="1.865" height="12.973"/>
<polygon fill="#FFFFFF" points="312.531,76.512 309.968,76.512 303.364,70.104 303.364,76.512 301.501,76.512 301.501,63.54 303.364,63.54 
	303.364,69.479 308.824,63.54 311.142,63.54 305.489,69.686 "/>
<polygon fill="#FFFFFF" points="322.755,63.54 324.999,63.54 320.184,69.665 320.184,76.512 318.318,76.512 318.318,69.646 313.509,63.54 
	315.753,63.54 319.234,68.008 "/>
<g>
	<path fill="#00A9E2" d="M9.919,4.968c-0.003,2.74-2.226,4.958-4.961,4.958C2.216,9.919-0.003,7.701,0,4.958
		C0,2.215,2.227-0.003,4.964,0C7.7,0.002,9.922,2.225,9.919,4.968"/>
	<path fill="#00A9E2" d="M132.58,4.968c-0.003,2.74-2.229,4.958-4.966,4.958c-2.738-0.007-4.959-2.225-4.957-4.968
		c0.004-2.743,2.228-4.961,4.968-4.958C130.362,0.002,132.58,2.225,132.58,4.968"/>
	<path fill="#00A9E2" d="M9.919,20.301c-0.003,2.738-2.226,4.958-4.961,4.955C2.216,25.252-0.003,23.031,0,20.291
		c0-2.745,2.227-4.961,4.964-4.958C7.7,15.337,9.922,17.556,9.919,20.301"/>
	<path fill="#00A9E2" d="M25.251,20.301c-0.002,2.738-2.226,4.958-4.963,4.955c-2.739-0.004-4.961-2.225-4.958-4.965
		c0.005-2.745,2.229-4.961,4.968-4.958C23.035,15.337,25.253,17.556,25.251,20.301"/>
	<path fill="#00A9E2" d="M117.245,20.301c0,2.738-2.224,4.958-4.961,4.955c-2.74-0.004-4.961-2.225-4.958-4.965
		c0-2.745,2.228-4.961,4.964-4.958C115.027,15.337,117.248,17.556,117.245,20.301"/>
	<path fill="#00A9E2" d="M132.58,20.301c-0.003,2.738-2.229,4.958-4.966,4.955c-2.738-0.004-4.959-2.225-4.957-4.965
		c0.004-2.745,2.228-4.961,4.968-4.958C130.362,15.337,132.58,17.556,132.58,20.301"/>
	<path fill="#00A9E2" d="M9.919,35.632c-0.003,2.74-2.226,4.958-4.961,4.958C2.216,40.585-0.003,38.365,0,35.622
		c0-2.743,2.227-4.961,4.964-4.954C7.7,30.668,9.922,32.889,9.919,35.632"/>
	<path fill="#00A9E2" d="M25.251,35.632c-0.002,2.74-2.226,4.958-4.963,4.958c-2.739-0.005-4.961-2.225-4.958-4.968
		c0.005-2.743,2.229-4.961,4.968-4.954C23.035,30.668,25.253,32.889,25.251,35.632"/>
	<path fill="#00A9E2" d="M40.582,35.632c0,2.74-2.224,4.958-4.961,4.958c-2.74-0.005-4.96-2.225-4.957-4.968
		c0.001-2.743,2.226-4.961,4.967-4.954C38.367,30.668,40.585,32.889,40.582,35.632"/>
	<path fill="#00A9E2" d="M101.914,35.632c-0.003,2.74-2.229,4.958-4.961,4.958c-2.74-0.005-4.961-2.225-4.958-4.968
		c0-2.743,2.225-4.961,4.965-4.954C99.696,30.668,101.914,32.889,101.914,35.632"/>
	<path fill="#00A9E2" d="M117.245,35.632c0,2.74-2.224,4.958-4.961,4.958c-2.74-0.005-4.961-2.225-4.958-4.968
		c0-2.743,2.228-4.961,4.964-4.954C115.027,30.668,117.248,32.889,117.245,35.632"/>
	<path fill="#00A9E2" d="M132.58,35.632c-0.003,2.74-2.229,4.958-4.966,4.958c-2.738-0.005-4.959-2.225-4.957-4.968
		c0.004-2.743,2.228-4.961,4.968-4.954C130.362,30.668,132.58,32.889,132.58,35.632"/>
	<path fill="#00A9E2" d="M9.919,50.964c-0.003,2.741-2.226,4.96-4.961,4.958C2.216,55.919-0.003,53.695,0,50.958
		C0,48.211,2.227,45.995,4.964,46C7.7,46,9.922,48.221,9.919,50.964"/>
	<path fill="#00A9E2" d="M25.251,50.964c-0.002,2.741-2.226,4.96-4.963,4.958c-2.739-0.003-4.961-2.227-4.958-4.964
		c0.005-2.747,2.229-4.963,4.968-4.958C23.035,46,25.253,48.221,25.251,50.964"/>
	<path fill="#00A9E2" d="M40.582,50.964c0,2.741-2.224,4.96-4.961,4.958c-2.74-0.003-4.96-2.227-4.957-4.964
		c0.001-2.747,2.226-4.963,4.967-4.958C38.367,46,40.585,48.221,40.582,50.964"/>
	<path fill="#00A9E2" d="M55.917,50.964c-0.003,2.741-2.225,4.96-4.961,4.958c-2.74-0.003-4.961-2.227-4.958-4.964
		c0-2.747,2.224-4.963,4.964-4.958C53.702,46,55.92,48.221,55.917,50.964"/>
	<path fill="#00A9E2" d="M86.583,50.964c-0.004,2.741-2.229,4.96-4.965,4.958c-2.739-0.003-4.962-2.227-4.957-4.964
		c0.003-2.747,2.227-4.963,4.967-4.958C84.364,46,86.583,48.221,86.583,50.964"/>
	<path fill="#00A9E2" d="M101.914,50.964c-0.003,2.741-2.229,4.96-4.961,4.958c-2.74-0.003-4.961-2.227-4.958-4.964
		c0-2.747,2.225-4.963,4.965-4.958C99.696,46,101.914,48.221,101.914,50.964"/>
	<path fill="#00A9E2" d="M117.245,50.964c0,2.741-2.224,4.96-4.961,4.958c-2.74-0.003-4.961-2.227-4.958-4.964
		c0-2.747,2.228-4.963,4.964-4.958C115.027,46,117.248,48.221,117.245,50.964"/>
	<path fill="#00A9E2" d="M132.58,50.964c-0.003,2.741-2.229,4.96-4.966,4.958c-2.738-0.003-4.959-2.227-4.957-4.964
		c0.004-2.747,2.228-4.963,4.968-4.958C130.362,46,132.58,48.221,132.58,50.964"/>
	<path fill="#00A9E2" d="M9.919,66.298c-0.003,2.738-2.226,4.956-4.961,4.955C2.216,71.25-0.003,69.029,0,66.288
		c0-2.745,2.227-4.961,4.964-4.957C7.7,61.331,9.922,63.553,9.919,66.298"/>
	<path fill="#00A9E2" d="M25.251,66.298c-0.002,2.738-2.226,4.956-4.963,4.955c-2.739-0.003-4.961-2.224-4.958-4.965
		c0.005-2.745,2.229-4.961,4.968-4.957C23.035,61.331,25.253,63.553,25.251,66.298"/>
	<path fill="#00A9E2" d="M40.582,66.298c0,2.738-2.224,4.956-4.961,4.955c-2.74-0.003-4.96-2.224-4.957-4.965
		c0.001-2.745,2.226-4.961,4.967-4.957C38.367,61.331,40.585,63.553,40.582,66.298"/>
	<path fill="#00A9E2" d="M55.917,66.298c-0.003,2.738-2.225,4.956-4.961,4.955c-2.74-0.003-4.961-2.224-4.958-4.965
		c0-2.745,2.224-4.961,4.964-4.957C53.702,61.331,55.92,63.553,55.917,66.298"/>
	<path fill="#00A9E2" d="M71.248,66.298c-0.003,2.738-2.225,4.956-4.961,4.955c-2.74-0.003-4.961-2.224-4.958-4.965
		c0-2.745,2.229-4.961,4.964-4.957C69.03,61.331,71.251,63.553,71.248,66.298"/>
	<path fill="#00A9E2" d="M86.583,66.298c-0.004,2.738-2.229,4.956-4.965,4.955c-2.739-0.003-4.962-2.224-4.957-4.965
		c0.003-2.745,2.227-4.961,4.967-4.957C84.364,61.331,86.583,63.553,86.583,66.298"/>
	<path fill="#00A9E2" d="M101.914,66.298c-0.003,2.738-2.229,4.956-4.961,4.955c-2.74-0.003-4.961-2.224-4.958-4.965
		c0-2.745,2.225-4.961,4.965-4.957C99.696,61.331,101.914,63.553,101.914,66.298"/>
	<path fill="#00A9E2" d="M117.245,66.298c0,2.738-2.224,4.956-4.961,4.955c-2.74-0.003-4.961-2.224-4.958-4.965
		c0-2.745,2.228-4.961,4.964-4.957C115.027,61.331,117.248,63.553,117.245,66.298"/>
	<path fill="#00A9E2" d="M132.58,66.298c-0.003,2.738-2.229,4.956-4.966,4.955c-2.738-0.003-4.959-2.224-4.957-4.965
		c0.004-2.745,2.228-4.961,4.968-4.957C130.362,61.331,132.58,63.553,132.58,66.298"/>
	<path fill="#00A9E2" d="M9.919,81.63c-0.003,2.739-2.226,4.958-4.961,4.956C2.216,86.582-0.003,84.362,0,81.619
		c0-2.742,2.227-4.959,4.964-4.958C7.7,76.664,9.922,78.887,9.919,81.63"/>
	<path fill="#00A9E2" d="M25.251,81.63c-0.002,2.739-2.226,4.958-4.963,4.956c-2.739-0.004-4.961-2.224-4.958-4.967
		c0.005-2.742,2.229-4.959,4.968-4.958C23.035,76.664,25.253,78.887,25.251,81.63"/>
	<path fill="#00A9E2" d="M40.582,81.63c0,2.739-2.224,4.958-4.961,4.956c-2.74-0.004-4.96-2.224-4.957-4.967
		c0.001-2.742,2.226-4.959,4.967-4.958C38.367,76.664,40.585,78.887,40.582,81.63"/>
	<path fill="#00A9E2" d="M55.917,81.63c-0.003,2.739-2.225,4.958-4.961,4.956c-2.74-0.004-4.961-2.224-4.958-4.967
		c0-2.742,2.224-4.959,4.964-4.958C53.702,76.664,55.92,78.887,55.917,81.63"/>
	<path fill="#00A9E2" d="M71.248,81.63c-0.003,2.739-2.225,4.958-4.961,4.956c-2.74-0.004-4.961-2.224-4.958-4.967
		c0-2.742,2.229-4.959,4.964-4.958C69.03,76.664,71.251,78.887,71.248,81.63"/>
	<path fill="#00A9E2" d="M86.583,81.63c-0.004,2.739-2.229,4.958-4.965,4.956c-2.739-0.004-4.962-2.224-4.957-4.967
		c0.003-2.742,2.227-4.959,4.967-4.958C84.364,76.664,86.583,78.887,86.583,81.63"/>
	<path fill="#00A9E2" d="M101.914,81.63c-0.003,2.739-2.229,4.958-4.961,4.956c-2.74-0.004-4.961-2.224-4.958-4.967
		c0-2.742,2.225-4.959,4.965-4.958C99.696,76.664,101.914,78.887,101.914,81.63"/>
	<path fill="#00A9E2" d="M117.245,81.63c0,2.739-2.224,4.958-4.961,4.956c-2.74-0.004-4.961-2.224-4.958-4.967
		c0-2.742,2.228-4.959,4.964-4.958C115.027,76.664,117.248,78.887,117.245,81.63"/>
	<path fill="#00A9E2" d="M132.58,81.63c-0.003,2.739-2.229,4.958-4.966,4.956c-2.738-0.004-4.959-2.224-4.957-4.967
		c0.004-2.742,2.228-4.959,4.968-4.958C130.362,76.664,132.58,78.887,132.58,81.63"/>
	<path fill="#00A9E2" d="M9.919,96.961c-0.003,2.74-2.226,4.958-4.961,4.958C2.216,101.914-0.003,99.694,0,96.953
		c0-2.745,2.227-4.961,4.964-4.956C7.7,91.998,9.922,94.217,9.919,96.961"/>
	<path fill="#00A9E2" d="M25.251,96.961c-0.002,2.74-2.226,4.958-4.963,4.958c-2.739-0.005-4.961-2.225-4.958-4.966
		c0.005-2.745,2.229-4.961,4.968-4.956C23.035,91.998,25.253,94.217,25.251,96.961"/>
	<path fill="#00A9E2" d="M40.582,96.961c0,2.74-2.224,4.958-4.961,4.958c-2.74-0.005-4.96-2.225-4.957-4.966
		c0.001-2.745,2.226-4.961,4.967-4.956C38.367,91.998,40.585,94.217,40.582,96.961"/>
	<path fill="#00A9E2" d="M55.917,96.961c-0.003,2.74-2.225,4.958-4.961,4.958c-2.74-0.005-4.961-2.225-4.958-4.966
		c0-2.745,2.224-4.961,4.964-4.956C53.702,91.998,55.92,94.217,55.917,96.961"/>
	<path fill="#00A9E2" d="M71.248,96.961c-0.003,2.74-2.225,4.958-4.961,4.958c-2.74-0.005-4.961-2.225-4.958-4.966
		c0-2.745,2.229-4.961,4.964-4.956C69.03,91.998,71.251,94.217,71.248,96.961"/>
	<path fill="#00A9E2" d="M86.583,96.961c-0.004,2.74-2.229,4.958-4.965,4.958c-2.739-0.005-4.962-2.225-4.957-4.966
		c0.003-2.745,2.227-4.961,4.967-4.956C84.364,91.998,86.583,94.217,86.583,96.961"/>
	<path fill="#00A9E2" d="M101.914,96.961c-0.003,2.74-2.229,4.958-4.961,4.958c-2.74-0.005-4.961-2.225-4.958-4.966
		c0-2.745,2.225-4.961,4.965-4.956C99.696,91.998,101.914,94.217,101.914,96.961"/>
	<path fill="#00A9E2" d="M117.245,96.961c0,2.74-2.224,4.958-4.961,4.958c-2.74-0.005-4.961-2.225-4.958-4.966
		c0-2.745,2.228-4.961,4.964-4.956C115.027,91.998,117.248,94.217,117.245,96.961"/>
	<path fill="#00A9E2" d="M132.58,96.961c-0.003,2.74-2.229,4.958-4.966,4.958c-2.738-0.005-4.959-2.225-4.957-4.966
		c0.004-2.745,2.228-4.961,4.968-4.956C130.362,91.998,132.58,94.217,132.58,96.961"/>
</g>
</svg>
